<?xml version="1.0" standalone="no"?>
<!DOCTYPE svg PUBLIC "-//W3C//DTD SVG 20010904//EN"
 "http://www.w3.org/TR/2001/REC-SVG-20010904/DTD/svg10.dtd">
<svg version="1.0" xmlns="http://www.w3.org/2000/svg"
 width="700.000000pt" height="700.000000pt" viewBox="0 0 700.000000 700.000000"
 preserveAspectRatio="xMidYMid meet">
<metadata>
Created by potrace 1.14, written by Peter Selinger 2001-2017
</metadata>
<g transform="translate(0.000000,700.000000) scale(0.100000,-0.100000)"
fill="#000000" stroke="none">
<path d="M3225 6644 c-433 -46 -789 -149 -1157 -336 -306 -156 -529 -318 -786
-571 -495 -488 -803 -1102 -909 -1812 -26 -172 -26 -678 0 -850 106 -707 414
-1324 904 -1807 271 -268 507 -436 838 -598 318 -156 601 -243 960 -297 172
-25 677 -26 850 0 367 55 686 156 1008 319 762 388 1338 1077 1587 1899 98
326 135 610 127 984 -5 264 -21 404 -71 620 -209 922 -820 1701 -1666 2124
-313 156 -599 247 -955 303 -103 16 -188 21 -410 23 -154 2 -298 1 -320 -1z
m515 -1770 c539 -83 1010 -535 1124 -1078 l14 -67 -22 14 c-11 8 -79 49 -150
91 -744 446 -1348 616 -1835 516 -241 -49 -427 -147 -605 -319 -100 -97 -102
-94 -26 66 159 336 462 607 810 723 226 76 438 93 690 54z m-329 -878 c251
-46 560 -164 874 -334 110 -59 354 -202 374 -218 8 -7 -97 -142 -159 -205
-369 -375 -975 -340 -1795 104 -102 55 -344 197 -363 213 -2 1 10 23 28 49
157 228 366 366 615 405 83 12 323 5 426 -14z m-1156 -807 c1106 -671 1921
-746 2468 -229 111 105 113 104 41 -50 -164 -348 -467 -617 -832 -736 -274
-90 -590 -90 -868 1 -410 134 -748 469 -884 874 -31 92 -62 223 -51 217 3 -2
60 -37 126 -77z"/>
<path d="M3368 3826 c-95 -39 -157 -102 -196 -198 -20 -51 -23 -74 -20 -142 6
-138 77 -247 198 -305 47 -22 68 -26 150 -26 82 0 103 4 150 26 70 33 135 99
169 169 22 47 26 68 26 150 0 81 -4 103 -26 150 -33 70 -99 136 -169 169 -80
38 -203 41 -282 7z"/>
</g>
</svg>
